<svg width="24" height="24" fill="none" xmlns="http://www.w3.org/2000/svg"><path d="M22.02 12.061c0 5.523-4.477 10-10 10-5.522 0-10-4.477-10-10 0-5.522 4.478-10 10-10 5.523 0 10 4.478 10 10Z" fill="url(#a)"/><path opacity=".05" d="M11 18h2a.5.5 0 0 0 .5-.5V10a.5.5 0 0 0-.5-.5h-2a.5.5 0 0 0-.5.5v7.5a.5.5 0 0 0 .5.5Z" fill="#000"/><path opacity=".07" d="M11.114 17.75h1.773c.2 0 .364-.163.364-.363v-7.274c0-.2-.163-.363-.364-.363h-1.774c-.2 0-.363.162-.363.364v7.273c0 .2.162.363.364.363Z" fill="#000"/><path opacity=".15" d="M12 9.505c1.101 0 1.994-.807 1.994-1.804S13.101 5.897 12 5.897s-1.994.807-1.994 1.804.893 1.804 1.994 1.804Z" fill="url(#b)"/><path d="M12 8.866c.85 0 1.325-.534 1.325-1.194 0-.66-.502-1.172-1.325-1.172s-1.325.512-1.325 1.172c0 .66.475 1.194 1.325 1.194ZM13 10h-2v7.5h2V10Z" fill="#fff"/><defs><radialGradient id="b" cx="0" cy="0" r="1" gradientUnits="userSpaceOnUse" gradientTransform="matrix(1.99416 0 0 1.80466 12 7.7)"><stop offset=".516"/><stop offset="1" stop-opacity="0"/></radialGradient><linearGradient id="a" x1="4.95" y1="4.99" x2="19.091" y2="19.132" gradientUnits="userSpaceOnUse"><stop stop-color="#33BEF0"/><stop offset="1" stop-color="#0A85D9"/></linearGradient></defs></svg>