<svg width="101" height="140" fill="none" xmlns="http://www.w3.org/2000/svg"><path fill-rule="evenodd" clip-rule="evenodd" d="M13.37 123.42h-3.12a2.49 2.49 0 0 0-.9-1.96 3.78 3.78 0 0 0-2.43-.68c-.93 0-1.68.18-2.24.54-.56.37-.84.84-.84 1.42 0 .99 1.3 1.74 3.93 2.26l.08.01c2.38.48 3.93 1.03 4.65 1.65.72.62 1.08 1.52 1.08 2.73 0 1.54-.54 2.73-1.62 3.57-1.08.84-2.6 1.26-4.6 1.26-2.22 0-3.9-.42-5.06-1.26-1.17-.84-1.85-2.13-2.06-3.87h3.22c.02.93.37 1.65 1.04 2.16.67.51 1.63.77 2.86.77a4 4 0 0 0 2.26-.56c.54-.37.82-.87.82-1.5 0-.91-1.11-1.6-3.32-2.06l-.7-.15c-2.26-.5-3.75-1.09-4.46-1.73-.71-.65-1.07-1.6-1.07-2.84 0-1.46.53-2.58 1.58-3.4 1.05-.8 2.53-1.21 4.42-1.21 2.04 0 3.61.42 4.73 1.26a4.42 4.42 0 0 1 1.75 3.6v-.01Zm13.1 1.99c-.5.54-1.59.98-3.24 1.3l-.8.17a5.47 5.47 0 0 0-2.39.95c-.45.4-.67.95-.67 1.67 0 .74.25 1.34.76 1.8.5.45 1.18.67 2.04.67 1.43 0 2.51-.44 3.25-1.33.74-.88 1.11-2.2 1.11-3.92 0-.25-.02-.65-.06-1.22v-.1Zm3.2-.84v5.23c0 .77.06 1.46.17 2.09.1.63.27 1.2.49 1.74h-3.45a10.03 10.03 0 0 1-.32-2.2 7.74 7.74 0 0 1-2.44 2.12 6.3 6.3 0 0 1-2.94.67 5.35 5.35 0 0 1-3.76-1.3c-.94-.85-1.4-2-1.4-3.42 0-.61.09-1.17.28-1.67.2-.5.48-.94.87-1.33.8-.79 2.63-1.33 5.5-1.62l.8-.1a5.04 5.04 0 0 0 2.27-.63c.45-.3.67-.76.67-1.36 0-.6-.27-1.1-.82-1.46a3.88 3.88 0 0 0-2.2-.55c-.99 0-1.79.2-2.4.61-.6.41-.97.98-1.09 1.72h-3.35a5.11 5.11 0 0 1 2.15-3.4c1.13-.76 2.66-1.14 4.6-1.14 2.28 0 3.92.46 4.9 1.39.98.91 1.48 2.45 1.48 4.61ZM41.55 121c-1.17 0-2.11.48-2.83 1.44a6.18 6.18 0 0 0-1.1 3.82c0 1.63.37 2.93 1.08 3.91a3.34 3.34 0 0 0 2.85 1.47c1.14 0 2.1-.5 2.85-1.5s1.13-2.29 1.13-3.85a6.2 6.2 0 0 0-1.1-3.84 3.45 3.45 0 0 0-2.88-1.45Zm-7.19-9.56h3.33l-.03 9.8a5.49 5.49 0 0 1 2.1-2.03 6.14 6.14 0 0 1 2.93-.67c1.82 0 3.34.73 4.54 2.2a8.58 8.58 0 0 1 1.81 5.64c0 2.26-.61 4.13-1.83 5.62a5.7 5.7 0 0 1-4.58 2.22c-1.2 0-2.23-.27-3.07-.8a5.36 5.36 0 0 1-1.98-2.4l.08 2.61h-3.3v-22.19Zm32.06 15.68H54.6a5.11 5.11 0 0 0 1.35 3.47 4.43 4.43 0 0 0 3.29 1.23c.86 0 1.62-.2 2.26-.58a3.72 3.72 0 0 0 1.48-1.63h3.3a6.42 6.42 0 0 1-2.53 3.4 7.6 7.6 0 0 1-4.33 1.21c-2.51 0-4.5-.7-5.94-2.1-1.45-1.4-2.17-3.3-2.17-5.71 0-2.33.7-4.22 2.12-5.67a7.43 7.43 0 0 1 5.56-2.17c2.34 0 4.16.7 5.46 2.08 1.3 1.39 1.95 3.35 1.95 5.88v.6ZM63 124.9a4.81 4.81 0 0 0-1.3-3.05 3.99 3.99 0 0 0-2.9-1.06c-1.1 0-2.03.36-2.8 1.1a5.3 5.3 0 0 0-1.49 3h8.5Zm18.72-1.47H78.6a2.49 2.49 0 0 0-.9-1.96 3.78 3.78 0 0 0-2.43-.68c-.93 0-1.68.18-2.24.54-.56.37-.84.84-.84 1.42 0 .99 1.3 1.74 3.93 2.26l.08.01c2.38.48 3.93 1.03 4.65 1.65.72.62 1.08 1.52 1.08 2.73 0 1.54-.54 2.73-1.62 3.57-1.08.84-2.6 1.26-4.6 1.26-2.22 0-3.9-.42-5.06-1.26-1.17-.84-1.85-2.13-2.06-3.87h3.22c.02.93.37 1.65 1.04 2.16.67.51 1.63.77 2.86.77a4 4 0 0 0 2.26-.56c.54-.37.82-.87.82-1.5 0-.91-1.11-1.6-3.32-2.06l-.7-.15c-2.26-.5-3.75-1.09-4.46-1.73-.71-.65-1.07-1.6-1.07-2.84 0-1.46.53-2.58 1.58-3.4 1.06-.8 2.53-1.21 4.42-1.21 2.04 0 3.61.42 4.73 1.26a4.42 4.42 0 0 1 1.75 3.6v-.01Zm7.06 8.12.03 8.45H85.5v-20.83h3.3l-.08 2.59a5.32 5.32 0 0 1 2.01-2.4 5.8 5.8 0 0 1 3.1-.78c1.81 0 3.33.74 4.54 2.23a8.6 8.6 0 0 1 1.81 5.6c0 2.3-.6 4.18-1.8 5.65a5.66 5.66 0 0 1-4.58 2.2c-1.1 0-2.07-.22-2.9-.67a5.6 5.6 0 0 1-2.1-2.04Zm3.9-10.39c-1.2 0-2.14.49-2.86 1.44a6.36 6.36 0 0 0-1.07 3.88c0 1.6.36 2.88 1.09 3.86a3.37 3.37 0 0 0 2.83 1.46c1.18 0 2.14-.49 2.87-1.47a6.14 6.14 0 0 0 1.11-3.82c0-1.57-.38-2.85-1.13-3.85-.76-1-1.7-1.5-2.85-1.5ZM50.24 52.5h50.3l.04.18a50.35 50.35 0 0 1-50.25 50.26A50.35 50.35 0 0 1 .07 52.68L0 43.65V.02L33.63 0v52.49L56.8 62.3a16.87 16.87 0 0 1 10.34 15.44c0 9.23-7.53 16.76-16.76 16.76a16.79 16.79 0 0 1-16.75-16.76v-.06l.01-25.2 16.61.01Z" fill="#fff"/><path fill-rule="evenodd" clip-rule="evenodd" d="M100.55 23.84V3A53.76 53.76 0 0 0 83.78.05a50.2 50.2 0 0 0-50.15 50.19h66.92l-22.93-9.45A16.8 16.8 0 0 1 67 25.2 16.8 16.8 0 0 1 83.78 8.43c9.23 0 16.77 7.47 16.77 16.7v-1.3Z" fill="#fff"/></svg>